<?xml version="1.0" standalone="no"?>
<!DOCTYPE svg PUBLIC "-//W3C//DTD SVG 20010904//EN"
 "http://www.w3.org/TR/2001/REC-SVG-20010904/DTD/svg10.dtd">
<svg version="1.0" xmlns="http://www.w3.org/2000/svg"
 width="282.000000pt" height="282.000000pt" viewBox="0 0 282.000000 282.000000"
 preserveAspectRatio="xMidYMid meet">
<metadata>
Created by potrace 1.10, written by Peter Selinger 2001-2011
</metadata>
<g transform="translate(0.000000,282.000000) scale(0.100000,-0.100000)"
fill="#ffffff" stroke="none">
<path d="M1097 2508 c-10 -11 -16 -22 -13 -25 7 -7 46 26 46 39 0 13 -14 8
-33 -14z"/>
<path d="M1375 2473 c-16 -3 -35 -9 -42 -14 -7 -7 -14 -6 -18 1 -8 13 -35 13
-35 0 0 -5 7 -10 15 -10 25 0 17 -25 -14 -43 -38 -22 -50 -21 -76 3 -20 19
-27 20 -66 9 -24 -6 -60 -13 -79 -16 -36 -5 -60 -19 -60 -34 0 -19 35 -39 69
-39 21 0 57 -6 82 -14 24 -8 73 -23 109 -34 36 -12 83 -29 104 -40 39 -19 40
-19 85 0 109 47 210 77 290 87 30 3 56 12 58 18 3 7 -18 36 -45 64 l-49 52
-99 3 c-54 2 -121 5 -149 7 -27 2 -63 2 -80 0z m53 -58 c33 -2 59 -45 28 -45
-7 0 -19 -7 -26 -15 -17 -20 -40 -18 -68 5 -22 18 -22 20 -6 45 12 18 22 24
33 19 9 -4 27 -8 39 -9z m-225 -30 c3 -13 -38 -19 -72 -9 l-26 7 25 8 c32 10
70 7 73 -6z m82 -25 c8 -13 -20 -24 -41 -16 -8 3 -12 10 -9 16 8 13 42 13 50
0z m70 -30 c18 -8 17 -9 -7 -9 -16 -1 -28 4 -28 9 0 12 8 12 35 0z"/>
<path d="M894 2315 c-4 -8 -12 -15 -19 -15 -24 0 -224 -154 -225 -172 0 -13
23 -9 39 7 28 27 75 65 116 93 22 15 42 30 43 35 2 4 10 7 17 7 8 0 18 6 22
13 4 8 16 16 26 20 9 3 17 11 17 17 0 16 -30 12 -36 -5z"/>
<path d="M500 2075 c-14 -8 -32 -14 -41 -15 -18 0 -59 -41 -59 -58 0 -16 26
-15 58 1 15 8 42 21 61 31 19 9 37 13 41 9 3 -4 3 -78 -1 -164 -9 -175 -23
-218 -84 -264 -95 -73 -110 20 -15 95 33 26 40 38 40 66 0 27 -5 37 -25 46
-22 10 -29 8 -50 -12 -27 -26 -65 -116 -65 -156 0 -13 -7 -41 -16 -62 -15 -36
-16 -36 -30 -17 -11 14 -15 37 -12 83 2 34 1 62 -2 62 -11 0 -30 -24 -30 -39
-1 -9 -9 -34 -20 -56 -28 -58 -25 -97 12 -157 37 -62 96 -138 107 -138 4 0 17
19 27 43 29 64 78 134 155 219 60 66 68 80 59 97 -12 24 -13 168 -1 242 5 30
12 78 15 107 l5 52 -52 0 c-29 -1 -63 -7 -77 -15z"/>
<path d="M1382 2015 c0 -51 2 -73 8 -60 4 12 4 48 0 80 l-7 60 -1 -80z"/>
<path d="M2183 2054 c-3 -9 0 -39 6 -67 13 -55 12 -290 -2 -317 -5 -11 9 -35
49 -80 70 -82 141 -187 158 -237 22 -65 36 -57 118 66 10 14 27 44 39 65 21
39 21 42 5 91 -9 29 -16 59 -16 69 0 80 -154 376 -196 376 -7 0 -39 11 -70 25
-66 29 -82 31 -91 9z m197 -178 c0 -7 14 -41 31 -76 34 -67 49 -143 30 -154
-6 -4 -11 -18 -11 -32 0 -33 -25 -41 -61 -20 -60 35 -109 98 -109 138 0 42 27
103 44 100 9 -2 16 1 16 6 0 5 9 21 21 36 20 26 39 27 39 2z"/>
<path d="M1350 1800 c-14 -11 -30 -24 -37 -30 -7 -5 -15 -10 -18 -10 -2 0 -69
-48 -147 -106 -78 -58 -147 -108 -153 -111 -8 -3 -3 -31 17 -91 15 -48 35
-112 44 -142 47 -156 79 -246 93 -257 11 -10 77 -13 253 -13 l238 0 14 33 c24
56 53 137 87 247 12 36 27 81 35 100 7 19 16 51 19 70 6 35 4 38 -57 85 -35
27 -65 52 -68 55 -8 9 -159 122 -212 158 -54 37 -73 39 -108 12z m110 -105 c7
-8 21 -15 31 -15 11 0 19 -4 19 -8 0 -4 18 -19 40 -32 22 -14 38 -31 35 -37
-2 -7 3 -13 13 -13 10 0 18 -8 19 -17 1 -10 7 -40 14 -68 17 -69 14 -203 -4
-224 -14 -16 -19 -29 -31 -82 -10 -45 -72 -64 -198 -63 -92 1 -112 5 -149 25
-37 21 -45 32 -66 91 -12 37 -26 105 -29 151 l-7 83 37 48 c20 26 36 51 36 56
0 13 67 78 102 100 40 24 120 27 138 5z"/>
<path d="M657 1664 c-11 -12 -8 -24 7 -24 7 0 19 -6 25 -14 6 -8 24 -16 39
-19 29 -5 76 -21 130 -43 39 -16 78 -18 87 -4 3 6 -2 13 -12 16 -10 3 -31 12
-46 20 -16 7 -33 14 -39 14 -5 0 -24 6 -41 14 -18 8 -50 18 -72 24 -22 5 -47
13 -56 16 -8 4 -18 3 -22 0z"/>
<path d="M2020 1619 c-36 -10 -74 -23 -85 -28 -11 -5 -30 -13 -42 -16 -13 -4
-23 -11 -23 -16 0 -14 57 -11 97 6 19 8 42 15 49 15 24 0 113 43 108 52 -7 11
-29 9 -104 -13z"/>
<path d="M226 1387 c-7 -30 10 -191 23 -216 6 -11 11 -30 11 -43 0 -40 36
-138 96 -263 39 -83 42 -87 84 -133 14 -15 42 -53 64 -84 21 -32 65 -82 99
-113 104 -96 296 -215 346 -215 9 0 21 -4 27 -8 17 -16 129 -51 218 -67 104
-20 358 -17 441 5 89 24 247 78 258 89 6 6 19 11 28 11 9 0 22 7 29 15 7 8 16
15 21 15 15 0 153 98 212 150 31 29 78 80 104 113 26 34 53 67 59 72 16 14 64
91 87 140 10 22 23 49 29 59 15 28 68 195 78 246 5 25 14 65 19 90 13 57 14
147 2 154 -5 3 -21 -29 -36 -72 -15 -42 -36 -95 -45 -117 -10 -22 -26 -65 -35
-95 -10 -30 -38 -101 -61 -158 -24 -56 -44 -115 -44 -131 0 -38 -20 -92 -31
-85 -5 3 -9 22 -9 43 0 53 -22 71 -58 47 -65 -42 -230 -101 -316 -114 -40 -6
-51 -12 -65 -37 -51 -92 -94 -148 -179 -233 -30 -31 -51 -60 -48 -67 3 -8 22
-23 42 -33 35 -18 36 -20 16 -26 -11 -4 -39 -2 -61 4 -24 6 -97 9 -172 7 -73
-2 -166 -1 -208 3 -42 4 -91 2 -109 -2 -18 -5 -47 -8 -65 -6 l-32 3 48 23 c26
12 47 28 47 35 0 7 -16 29 -36 48 -51 49 -162 197 -183 244 -13 29 -31 42 -71
49 -71 14 -175 50 -255 91 -45 22 -87 39 -94 37 -6 -2 -11 -27 -11 -63 0 -52
-2 -59 -19 -59 -11 0 -22 8 -25 18 -22 79 -50 173 -61 202 -7 19 -18 53 -24
75 -30 115 -54 195 -72 237 -10 26 -19 53 -19 61 0 14 -28 77 -35 77 -1 0 -5
-10 -9 -23z m1864 -750 c0 -16 -19 -39 -66 -78 -78 -64 -108 -81 -137 -77 -36
5 -31 34 14 80 54 56 88 78 121 78 15 0 30 5 33 10 12 19 35 10 35 -13z
m-1236 -47 c49 -52 74 -95 62 -107 -4 -4 -16 -2 -26 5 -11 7 -26 12 -35 12 -8
0 -19 9 -25 20 -6 11 -18 20 -26 20 -18 0 -74 53 -74 70 0 11 35 28 61 29 9 1
37 -21 63 -49z"/>
<path d="M1680 999 c0 -16 31 -79 40 -79 6 0 10 -5 10 -11 0 -12 84 -124 101
-135 24 -14 19 8 -10 51 -17 25 -31 48 -31 50 0 9 -109 132 -110 124z"/>
<path d="M1064 967 c-25 -28 -105 -135 -121 -165 -22 -37 -15 -36 27 6 22 22
40 43 40 46 0 7 10 21 40 55 20 22 44 70 39 75 -2 3 -13 -5 -25 -17z"/>
</g>
</svg>
