<?xml version="1.0" standalone="no"?>
<!DOCTYPE svg PUBLIC "-//W3C//DTD SVG 20010904//EN"
 "http://www.w3.org/TR/2001/REC-SVG-20010904/DTD/svg10.dtd">
<svg version="1.0" xmlns="http://www.w3.org/2000/svg"
 width="48.000000pt" height="48.000000pt" viewBox="0 0 48.000000 48.000000"
 preserveAspectRatio="xMidYMid meet">
<metadata>
Created by potrace 1.10, written by Peter Selinger 2001-2011
</metadata>
<g transform="translate(0.000000,48.000000) scale(0.100000,-0.100000)"
fill="#000000" stroke="none">
<path d="M235 411 c11 -5 32 -10 47 -10 15 -1 39 -12 54 -26 15 -14 31 -25 35
-25 5 0 9 -9 9 -19 0 -14 -8 -21 -27 -24 l-28 -4 28 -2 c40 -2 53 -40 31 -97
-14 -38 -21 -44 -46 -44 -30 0 -98 -46 -98 -67 0 -8 -9 -9 -36 -2 -56 16 -76
5 -29 -16 142 -63 293 92 231 238 -21 51 -88 99 -144 103 -35 3 -42 2 -27 -5z"/>
<path d="M101 353 c-40 -49 -40 -69 0 -32 17 16 34 27 39 24 4 -2 5 7 2 20 -2
14 -6 25 -7 25 -2 0 -17 -17 -34 -37z"/>
<path d="M212 355 c-42 -20 -43 -21 -40 -65 3 -44 3 -45 48 -53 25 -5 48 -14
52 -21 5 -7 8 -4 8 8 0 10 9 33 19 50 l20 31 -32 35 -32 35 -43 -20z m56 -49
c2 -10 -1 -23 -6 -28 -14 -14 -62 -1 -62 15 0 37 62 49 68 13z"/>
<path d="M70 199 c0 -23 23 -71 42 -86 7 -6 25 -9 39 -6 l26 5 -23 23 c-13 13
-24 30 -24 37 0 7 -14 21 -30 30 -29 17 -30 16 -30 -3z"/>
</g>
</svg>
